<?xml version="1.0" standalone="no"?>
<!DOCTYPE svg PUBLIC "-//W3C//DTD SVG 20010904//EN"
 "http://www.w3.org/TR/2001/REC-SVG-20010904/DTD/svg10.dtd">
<svg version="1.0" xmlns="http://www.w3.org/2000/svg"
 width="192.000000pt" height="192.000000pt" viewBox="0 0 192.000000 192.000000"
 preserveAspectRatio="xMidYMid meet">
<metadata>
Created by potrace 1.11, written by Peter Selinger 2001-2013
</metadata>
<g transform="translate(0.000000,192.000000) scale(0.100000,-0.100000)"
fill="#000000" stroke="none">
<path d="M723 1877 c-3 -6 -1 -7 5 -3 7 4 12 2 12 -4 0 -8 -9 -10 -24 -6 -14
3 -27 2 -31 -3 -3 -6 -14 -8 -25 -6 -11 2 -23 -1 -26 -7 -5 -7 -2 -8 6 -3 9 5
11 4 6 -4 -4 -6 -11 -9 -16 -6 -5 3 -12 1 -15 -5 -5 -8 -12 -7 -23 2 -10 8
-13 9 -9 1 4 -6 3 -14 -3 -18 -5 -3 -10 -1 -10 5 0 7 -7 5 -16 -4 -8 -9 -21
-13 -27 -9 -6 4 -8 0 -4 -10 7 -19 -4 -22 -20 -6 -9 9 -18 5 -38 -15 -14 -14
-32 -26 -40 -26 -8 0 -22 -11 -31 -25 -9 -14 -20 -22 -25 -19 -5 3 -9 -2 -9
-10 0 -9 -7 -16 -15 -16 -8 0 -15 -5 -15 -11 0 -5 -4 -7 -10 -4 -5 3 -10 -1
-10 -9 0 -9 -5 -15 -12 -14 -6 2 -17 -8 -25 -22 -7 -14 -13 -21 -13 -16 0 5
-9 1 -20 -9 -11 -10 -20 -24 -20 -32 0 -7 -7 -13 -16 -13 -10 0 -14 -6 -10
-15 3 -10 -1 -15 -12 -15 -15 0 -15 -2 -2 -10 13 -9 13 -10 0 -11 -8 -1 -19
-1 -23 0 -5 1 -6 -3 -2 -9 3 -5 2 -10 -3 -10 -6 0 -13 -7 -16 -16 -6 -14 -4
-15 11 -4 10 7 5 1 -10 -14 -15 -14 -24 -26 -20 -26 4 0 4 -4 -2 -8 -20 -14
-44 -69 -40 -90 2 -14 -1 -19 -9 -16 -9 3 -13 -3 -12 -18 1 -13 -4 -29 -11
-36 -7 -7 -9 -20 -6 -29 5 -11 3 -14 -6 -8 -10 6 -11 3 -2 -13 8 -15 8 -23 -1
-28 -7 -4 -8 -3 -4 4 4 7 3 12 -1 12 -5 0 -10 -58 -11 -129 -3 -111 -1 -129
13 -135 9 -3 13 -11 9 -17 -4 -8 -3 -9 4 -5 7 4 12 2 12 -5 0 -8 5 -7 17 2 11
10 14 10 9 2 -5 -9 1 -13 23 -13 16 0 33 5 36 10 4 6 11 7 17 4 7 -4 8 -2 4 4
-6 10 4 16 25 14 3 -1 6 6 6 13 0 9 -5 12 -12 7 -6 -4 -3 0 6 9 10 9 14 21 9
28 -9 15 -2 50 14 70 8 11 8 13 -2 7 -6 -4 -12 -2 -12 3 0 6 5 11 11 11 8 0 7
6 -2 17 -12 14 -12 15 0 9 10 -7 12 -3 6 14 -6 18 -4 22 7 18 10 -4 14 4 16
28 3 61 5 69 21 82 13 11 13 12 1 7 -8 -4 -4 3 10 14 21 18 22 20 5 15 -17 -5
-16 -3 5 16 14 12 19 19 13 15 -8 -3 -6 6 4 24 10 16 21 27 25 25 3 -2 10 1
14 7 5 8 3 9 -6 4 -8 -5 -11 -3 -8 6 3 8 12 13 20 13 10 -1 14 5 11 17 -4 15
-2 18 13 12 17 -6 18 -5 4 12 -9 11 -10 16 -2 11 7 -4 15 -1 18 8 3 9 11 13
18 9 6 -4 5 1 -3 10 -12 15 -12 17 1 12 9 -4 18 1 22 10 3 9 11 13 17 9 7 -4
9 -3 6 3 -4 6 1 17 10 24 14 12 16 12 8 0 -5 -10 -4 -12 3 -7 7 4 12 13 12 21
0 7 7 16 16 19 10 4 13 2 8 -7 -6 -8 -3 -8 8 1 9 8 15 19 12 26 -3 7 2 13 10
13 8 0 13 -5 10 -11 -3 -6 2 -2 10 8 9 11 16 16 16 10 1 -5 8 2 16 16 8 14 13
17 10 8 -3 -12 -1 -15 9 -11 8 3 12 9 9 14 -4 8 33 14 58 10 4 0 4 7 1 17 -6
15 -5 15 10 3 14 -11 18 -11 23 3 3 9 10 13 15 10 5 -3 9 1 9 8 0 9 3 9 10 -2
8 -12 10 -12 11 5 0 11 3 14 6 8 2 -7 9 -13 15 -13 6 0 8 7 5 14 -4 10 -1 13
8 9 8 -3 12 -9 9 -14 -3 -5 2 -6 10 -3 9 3 13 11 9 17 -4 6 -1 7 8 2 17 -11
50 -14 44 -4 -3 4 2 9 10 13 8 3 15 0 15 -6 0 -7 5 -6 15 2 12 10 15 10 15 0
0 -9 7 -7 21 6 13 11 19 13 17 5 -2 -7 5 -15 15 -16 9 -2 15 1 11 6 -3 5 0 9
5 9 6 0 11 -4 11 -9 0 -5 11 -8 24 -7 13 0 22 4 19 9 -2 4 2 7 10 7 8 0 22 10
31 23 9 12 14 16 10 8 -5 -9 -3 -12 5 -7 9 6 9 11 1 21 -8 10 -8 15 1 21 8 5
10 3 4 -7 -5 -8 -4 -11 1 -6 11 11 14 68 3 61 -5 -3 -9 4 -9 15 0 11 -5 23
-12 27 -6 4 -8 3 -5 -3 3 -5 0 -10 -7 -10 -8 0 -12 9 -10 21 3 12 2 15 -2 9
-3 -7 -10 -13 -15 -13 -6 0 -7 5 -4 10 4 6 -33 10 -104 10 -78 0 -111 -4 -114
-12 -4 -10 -6 -10 -6 0 -1 6 -6 12 -12 12 -5 0 -7 -5 -3 -12 5 -7 3 -8 -7 -2
-20 12 -59 13 -66 1z m-233 -102 c-7 -8 -18 -15 -24 -15 -6 0 -2 7 8 15 25 19
32 19 16 0z m-60 -39 c0 -2 -7 -7 -16 -10 -8 -3 -12 -2 -9 4 6 10 25 14 25 6z"/>
<path d="M1352 1768 c2 -7 -2 -12 -9 -11 -8 2 -10 -4 -6 -14 4 -9 2 -14 -3
-10 -18 11 -35 -9 -38 -45 -2 -20 -7 -42 -12 -50 -6 -10 -4 -10 10 1 9 8 16
10 15 5 -2 -5 1 -20 5 -33 7 -19 10 -21 18 -10 7 11 9 9 5 -7 -3 -13 1 -21 9
-21 7 0 11 4 8 9 -3 4 0 8 5 8 6 0 11 -9 11 -20 0 -11 6 -20 13 -20 7 0 22 -8
33 -18 10 -10 27 -21 38 -25 12 -5 16 -13 12 -23 -6 -15 -4 -15 11 -3 11 9 14
10 9 2 -4 -8 -2 -13 4 -13 7 0 9 -7 6 -17 -4 -10 -4 -15 -1 -11 8 8 49 -31 58
-54 3 -10 11 -18 17 -18 6 0 8 -4 5 -10 -3 -5 -1 -10 5 -10 6 0 8 -4 5 -10 -3
-5 2 -10 12 -10 15 0 16 -2 3 -10 -12 -7 -12 -10 -1 -10 7 0 11 -6 8 -15 -4
-8 -1 -17 5 -21 7 -4 8 -3 4 4 -4 7 -2 12 3 12 6 0 11 -9 11 -21 0 -11 4 -18
8 -15 5 3 9 -1 9 -9 0 -8 -3 -12 -7 -10 -4 2 -7 -2 -7 -10 0 -8 4 -12 9 -9 4
3 8 -2 8 -11 0 -10 5 -13 13 -9 9 6 9 4 -1 -8 -10 -13 -10 -17 4 -22 14 -5 14
-9 3 -23 -12 -14 -12 -16 0 -8 11 6 13 4 8 -8 -4 -10 -1 -17 6 -17 8 0 6 -4
-3 -10 -8 -5 -10 -10 -4 -10 6 0 10 -12 10 -27 -1 -16 4 -39 12 -52 8 -13 10
-21 4 -17 -5 3 -12 -3 -15 -14 -3 -11 -1 -22 4 -25 4 -3 4 -16 -1 -29 -5 -13
-6 -27 -2 -30 9 -10 11 -37 2 -31 -5 3 -11 1 -15 -5 -3 -5 -2 -10 3 -10 6 0
12 -7 15 -14 4 -10 1 -13 -7 -10 -10 4 -13 -3 -11 -25 1 -17 -2 -31 -7 -31 -6
0 -5 -7 2 -15 11 -13 10 -14 -3 -9 -12 4 -15 0 -13 -20 2 -14 0 -26 -5 -26 -5
0 -13 -10 -20 -21 -7 -15 -8 -19 0 -15 7 5 9 1 5 -8 -3 -9 -10 -16 -15 -16 -5
0 -9 -7 -9 -15 0 -8 -4 -15 -9 -15 -6 0 -8 -9 -6 -20 2 -11 1 -19 -3 -17 -4 1
-8 -2 -9 -6 -1 -4 -10 -15 -19 -24 -9 -10 -14 -27 -12 -44 3 -15 1 -26 -4 -23
-16 10 -7 -6 17 -30 26 -26 33 -42 13 -30 -6 4 -8 3 -5 -3 4 -6 17 -9 31 -8
17 2 26 -3 30 -18 l6 -22 20 23 c10 13 23 23 27 24 21 2 45 27 37 40 -5 9 -2
8 11 -2 11 -9 16 -10 11 -2 -4 7 -2 12 4 12 6 0 8 5 5 11 -4 6 1 17 11 25 11
9 13 13 7 9 -9 -4 -11 -1 -7 10 4 9 12 14 19 11 8 -3 12 5 10 25 -1 16 1 26 6
23 5 -3 9 0 9 7 0 6 8 18 18 25 16 13 16 14 -3 8 -20 -5 -20 -5 -1 10 17 13
17 18 5 33 -8 9 -9 14 -3 10 7 -4 18 1 25 10 10 12 10 14 2 9 -7 -4 -13 -2
-13 3 0 6 5 11 11 11 6 0 8 13 5 30 -2 17 0 28 5 24 5 -3 6 -11 3 -17 -4 -7
-3 -8 1 -4 14 12 15 37 2 37 -7 0 -6 4 2 9 8 5 16 17 17 25 1 9 -2 14 -7 10
-5 -3 -9 -1 -9 5 0 5 6 12 13 15 9 5 9 7 0 12 -10 4 -9 10 3 22 15 15 15 16
-2 23 -16 7 -15 8 6 9 23 1 23 2 5 10 -14 6 -15 9 -5 10 10 1 9 4 -5 10 -18 8
-18 9 -2 9 12 1 15 5 11 13 -4 7 -6 33 -5 59 1 26 -2 50 -9 54 -8 5 -7 11 2
23 10 12 10 14 1 8 -16 -9 -17 6 -1 22 9 9 8 12 -7 12 -17 0 -18 2 -5 10 8 5
10 10 4 10 -14 0 -14 30 0 31 6 0 0 5 -13 10 -19 8 -21 12 -11 24 10 12 10 15
0 15 -10 0 -10 3 0 15 11 13 10 14 -4 9 -12 -5 -15 -2 -9 12 4 11 3 15 -4 11
-6 -4 -9 3 -7 18 1 14 -2 25 -7 25 -4 0 -5 7 -2 17 4 10 2 14 -5 9 -6 -3 -13
-2 -17 4 -3 5 -1 10 6 10 7 0 3 8 -9 18 -17 15 -19 21 -9 32 10 10 9 12 -5 7
-10 -3 -20 -2 -23 3 -4 6 0 10 7 10 8 1 6 6 -6 15 -11 8 -15 19 -10 27 4 7 4
10 -1 6 -11 -10 -46 32 -38 45 4 6 0 8 -10 4 -11 -4 -14 -2 -10 8 3 8 -2 18
-11 21 -9 3 -13 11 -10 16 4 6 -3 8 -17 4 -13 -3 -18 -3 -11 0 6 3 12 13 12
22 0 15 -2 15 -10 2 -7 -11 -10 -11 -10 -2 0 7 -5 10 -10 7 -6 -4 -10 -3 -9 2
3 17 -1 36 -7 30 -6 -6 -32 12 -81 59 -18 18 -33 27 -33 20 -1 -6 -7 0 -14 13
-10 18 -15 20 -19 10 -4 -10 -6 -9 -6 3 -1 11 -6 15 -16 11 -9 -3 -15 -2 -14
3 4 23 -2 26 -16 8 -8 -10 -15 -14 -14 -9 3 24 -2 27 -17 9 -8 -10 -13 -14
-10 -7 4 6 2 15 -4 18 -6 4 -9 1 -8 -7z m363 -808 c3 -6 -1 -7 -9 -4 -18 7
-21 14 -7 14 6 0 13 -4 16 -10z m-63 -572 c-7 -7 -12 -8 -12 -2 0 14 12 26 19
19 2 -3 -1 -11 -7 -17z"/>
<path d="M1535 1690 c3 -5 8 -10 11 -10 2 0 4 5 4 10 0 6 -5 10 -11 10 -5 0
-7 -4 -4 -10z"/>
<path d="M870 1485 c-9 -11 -16 -12 -25 -5 -9 8 -15 8 -20 0 -3 -5 -15 -10
-25 -10 -10 0 -21 -6 -23 -12 -4 -10 -6 -10 -6 0 -1 6 -6 12 -12 12 -6 0 -8
-7 -5 -17 4 -10 4 -14 0 -10 -4 4 -16 -1 -27 -10 -11 -10 -17 -12 -13 -5 4 6
2 12 -4 12 -6 0 -13 -7 -17 -16 -3 -8 -11 -13 -19 -10 -15 6 -37 -17 -26 -29
4 -5 -1 -5 -12 -1 -14 5 -17 3 -12 -10 6 -15 4 -15 -11 -3 -14 12 -16 12 -8 0
6 -11 4 -13 -9 -8 -13 5 -17 3 -13 -7 5 -13 -18 -31 -35 -28 -4 1 -4 -6 -1
-15 4 -10 2 -14 -5 -9 -6 4 -12 -3 -14 -16 -2 -13 -8 -23 -15 -23 -17 0 -29
-15 -12 -15 10 -1 8 -5 -5 -15 -11 -8 -16 -15 -11 -15 5 0 0 -7 -11 -16 -10
-8 -13 -12 -5 -8 9 5 12 3 7 -4 -4 -7 -15 -12 -24 -13 -14 0 -13 -2 3 -9 19
-8 19 -8 -5 -18 -14 -6 -20 -11 -13 -11 15 -1 10 -45 -7 -66 -15 -18 -23 -48
-11 -40 4 2 8 -2 8 -10 0 -8 -4 -12 -9 -9 -4 3 -8 -2 -8 -11 0 -9 5 -13 11
-10 6 4 5 -2 -3 -14 -10 -17 -10 -25 -1 -41 9 -14 10 -21 1 -26 -7 -5 -8 -3
-3 6 5 9 4 11 -4 6 -8 -6 -9 -12 -2 -20 6 -7 8 -16 4 -19 -3 -4 0 -7 7 -7 11
0 11 -3 3 -11 -9 -9 -7 -16 6 -28 10 -10 11 -12 1 -6 -13 9 -13 8 -1 -7 7 -10
20 -18 27 -18 8 0 14 -6 14 -13 0 -8 15 -13 45 -13 25 -1 45 3 45 8 0 5 5 6
10 3 6 -4 7 -11 4 -17 -4 -7 -2 -8 4 -4 6 4 9 13 6 20 -3 7 2 16 11 20 9 3 13
11 9 18 -5 8 -2 9 11 4 15 -5 16 -4 6 8 -9 10 -9 21 -3 32 10 18 3 62 -7 46
-3 -6 -5 15 -4 45 1 34 6 59 15 64 10 7 10 9 0 9 -7 0 -10 5 -7 10 5 8 12 7
23 -2 15 -12 16 -11 3 5 -13 16 -13 20 0 28 12 7 12 9 -1 9 -12 0 -12 2 -2 9
8 4 14 12 15 17 1 5 6 7 12 6 5 -2 7 0 3 3 -9 10 15 57 39 76 15 11 15 10 -2
-11 l-20 -25 23 19 c12 11 21 25 18 32 -3 7 2 10 13 7 11 -3 21 2 24 11 3 8
16 20 28 26 17 10 20 9 14 -1 -5 -8 -4 -10 3 -5 7 4 12 15 12 24 0 10 3 13 8
7 9 -13 35 -18 28 -6 -4 5 2 9 11 9 10 0 27 3 38 8 18 7 19 6 5 -11 -12 -16
-9 -15 14 3 26 20 31 21 44 8 10 -10 22 -12 43 -6 22 7 31 5 39 -8 6 -11 10
-12 10 -4 0 7 5 10 10 7 6 -4 8 -10 6 -14 -3 -4 10 -7 29 -6 19 1 32 -1 30 -6
-3 -4 -1 -10 5 -14 5 -3 10 -2 10 4 0 5 9 8 21 6 16 -3 19 0 15 12 -6 13 -4
14 9 3 13 -11 16 -11 13 1 -2 8 3 13 10 11 8 -1 11 2 7 8 -3 5 -1 10 5 10 6 0
8 5 5 10 -4 6 -11 8 -16 5 -15 -10 -10 2 8 16 14 12 16 12 8 0 -5 -10 -4 -12
4 -7 9 6 9 11 -1 24 -8 10 -9 13 -1 9 6 -4 14 -3 18 3 5 9 -7 14 -26 12 -4 -1
-5 9 -2 21 4 18 3 19 -6 7 -9 -13 -11 -12 -11 5 0 11 -10 29 -22 39 -17 15
-20 15 -15 3 5 -14 2 -14 -18 -5 -14 6 -25 15 -25 19 0 4 -7 10 -16 13 -15 6
-15 4 -3 -11 7 -10 0 -7 -15 7 -16 14 -26 19 -22 13 9 -16 5 -16 -28 -3 -19 7
-26 6 -26 -3 0 -9 -2 -9 -9 1 -5 9 -18 11 -37 7 -20 -5 -25 -4 -15 3 10 7 5 9
-18 7 -17 -1 -35 -6 -39 -10 -4 -5 -2 -5 5 -1 6 3 14 2 17 -3 4 -5 -2 -8 -11
-6 -10 2 -22 4 -26 4 -5 1 -5 6 -2 11 10 15 -1 12 -15 -5z"/>
<path d="M1100 1250 c-9 -6 -10 -10 -3 -10 6 0 15 5 18 10 8 12 4 12 -15 0z"/>
<path d="M1356 1128 c11 -17 -8 -29 -24 -16 -12 10 -14 10 -8 1 4 -8 2 -13 -4
-13 -6 0 -8 -5 -4 -12 5 -7 2 -9 -9 -5 -10 4 -16 0 -15 -11 0 -9 -3 -27 -6
-40 -3 -13 -1 -20 5 -17 12 8 12 -2 -2 -27 -8 -15 -8 -19 0 -13 15 9 3 -97
-12 -106 -5 -4 -6 -13 -2 -20 6 -9 3 -11 -9 -6 -12 5 -15 3 -9 -6 12 -19 12
-37 1 -34 -6 1 -13 -4 -16 -12 -3 -9 0 -11 8 -6 9 5 11 4 6 -3 -4 -7 -13 -12
-21 -12 -8 0 -17 -5 -21 -12 -4 -7 -3 -8 4 -4 8 5 10 2 6 -8 -3 -9 -10 -13
-15 -10 -5 3 -14 -7 -21 -21 -8 -18 -14 -22 -20 -13 -6 10 -8 8 -8 -4 0 -12
-5 -15 -17 -11 -9 4 -14 2 -10 -3 3 -6 -3 -16 -15 -23 -11 -7 -17 -8 -14 -2 4
7 1 8 -8 5 -9 -3 -14 -10 -11 -14 3 -4 -2 -11 -11 -14 -10 -4 -13 -2 -8 7 4 6
-3 3 -16 -8 -13 -11 -20 -14 -16 -7 4 6 2 12 -3 12 -6 0 -11 -4 -11 -8 0 -5
-14 -6 -31 -4 -19 3 -29 1 -26 -5 3 -5 0 -10 -8 -10 -8 0 -11 5 -8 10 3 5 0 7
-8 5 -8 -3 -25 -1 -38 4 -19 7 -22 6 -15 -5 5 -7 1 -4 -8 6 -10 11 -18 15 -18
9 0 -5 -11 -9 -24 -8 -20 1 -22 4 -13 15 9 12 9 13 -1 7 -8 -5 -22 -1 -35 10
-12 10 -16 12 -9 4 15 -18 16 -38 0 -22 -9 9 -15 7 -25 -6 -8 -9 -12 -11 -8
-4 10 19 -2 14 -32 -15 -15 -14 -22 -23 -15 -19 6 4 12 2 12 -3 0 -6 -6 -11
-14 -11 -16 0 -12 -63 5 -68 6 -3 5 -10 -3 -20 -10 -12 -10 -14 0 -8 7 4 12 2
12 -6 0 -9 3 -9 10 2 9 13 10 13 11 0 1 -8 1 -18 1 -21 -1 -4 8 -4 20 -1 15 3
19 2 14 -7 -4 -6 -4 -11 1 -10 24 4 63 -2 59 -9 -3 -5 1 -9 9 -9 8 0 11 5 8
11 -3 6 0 5 8 -1 17 -17 32 -17 23 0 -4 6 3 3 16 -8 20 -17 22 -17 17 -3 -4
12 -2 15 8 12 8 -3 11 -13 8 -22 -4 -14 -3 -14 5 -3 6 8 24 14 41 13 17 0 29
3 27 7 -3 4 2 8 10 8 8 0 13 -6 10 -14 -3 -7 -1 -13 4 -13 6 0 10 5 10 10 0 6
5 10 11 10 5 0 7 -6 4 -12 -4 -7 1 -4 9 6 9 11 16 16 16 12 0 -5 8 -2 17 5 9
8 14 9 10 3 -3 -6 0 -11 8 -11 8 0 12 4 10 8 -8 13 22 18 35 6 10 -9 9 -6 0
13 -12 22 -11 23 2 13 11 -10 17 -10 28 0 10 10 11 9 5 -3 -7 -12 -6 -13 7 -3
8 7 19 9 23 5 5 -4 5 -1 1 6 -4 6 -2 12 4 12 6 0 8 4 5 10 -4 6 1 7 11 3 11
-4 15 -3 10 5 -4 7 2 9 19 6 19 -3 23 -1 19 11 -4 9 0 15 9 15 9 0 19 5 23 12
5 7 3 8 -6 3 -9 -6 -11 -4 -6 4 5 7 15 10 24 6 9 -3 13 -3 10 1 -4 3 2 15 12
27 11 11 16 25 13 31 -4 6 1 5 10 -2 14 -12 16 -11 12 7 -2 13 1 21 10 21 7 0
15 10 17 23 2 16 9 21 23 19 17 -2 17 -1 5 8 -11 7 -12 12 -3 18 7 4 10 16 9
27 -2 11 1 26 6 32 6 7 8 19 5 28 -4 8 -1 17 5 21 7 4 8 3 4 -4 -4 -7 -2 -12
3 -12 11 0 16 19 13 53 -1 11 2 16 10 11 7 -5 8 -3 3 7 -16 24 -13 48 4 42 11
-4 10 -1 -3 9 -18 14 -18 16 -2 25 17 9 17 11 2 16 -14 6 -15 11 -5 28 9 17 8
20 -2 14 -9 -6 -11 -3 -6 8 3 9 1 18 -6 21 -8 3 -7 5 2 5 10 1 7 7 -7 20 -12
10 -19 21 -15 25 3 3 -4 6 -16 6 -13 0 -19 4 -16 10 4 6 3 10 -2 9 -4 -1 -10
0 -13 1 -16 6 -58 4 -54 -2z"/>
<path d="M416 1088 c3 -5 10 -6 15 -3 13 9 11 12 -6 12 -8 0 -12 -4 -9 -9z"/>
<path d="M1461 788 c-14 -23 -14 -23 8 -4 22 20 25 26 13 26 -4 0 -13 -10 -21
-22z"/>
<path d="M143 687 c1 -7 -8 -12 -20 -11 -12 0 -19 -4 -16 -9 3 -6 -2 -16 -12
-23 -17 -13 -31 -79 -14 -68 5 3 9 -6 9 -20 0 -14 5 -26 10 -26 6 0 10 -6 10
-14 0 -8 5 -16 11 -18 6 -2 12 -15 12 -30 1 -18 6 -23 13 -17 12 10 24 2 24
-15 0 -6 -5 -4 -10 4 -5 8 -10 10 -10 4 0 -16 25 -35 34 -27 4 4 4 0 0 -10 -4
-12 -1 -17 12 -17 16 0 17 -2 4 -10 -13 -9 -13 -10 0 -11 8 -1 19 -1 24 0 5 1
3 -5 -4 -14 -11 -14 -11 -16 1 -13 8 2 13 -3 11 -12 -2 -8 -1 -12 3 -8 8 8 35
-14 29 -24 -3 -4 4 -5 15 -3 14 2 18 -1 14 -11 -3 -8 0 -14 7 -14 6 0 8 -4 5
-10 -3 -5 0 -7 8 -4 8 3 17 -2 20 -10 4 -9 14 -16 24 -16 15 0 16 -2 3 -10
-12 -8 -12 -10 5 -10 25 -1 57 -24 47 -35 -4 -4 3 -6 15 -3 17 5 20 2 15 -11
-5 -14 -4 -14 13 -1 17 14 18 13 12 -3 -3 -9 -2 -17 2 -17 5 0 17 -3 27 -7 13
-5 15 -3 10 8 -4 8 6 -1 22 -20 20 -24 31 -30 37 -22 5 9 11 7 22 -9 12 -18
17 -19 31 -8 9 7 13 9 10 3 -3 -5 0 -16 8 -23 12 -11 14 -10 14 3 0 14 4 14
28 -3 15 -11 37 -18 50 -16 13 2 21 1 18 -4 -2 -4 9 -8 25 -8 19 -1 26 2 22
10 -4 6 0 5 9 -2 24 -19 365 -14 373 5 3 9 1 11 -8 6 -19 -12 -37 -12 -37 -1
0 6 6 8 14 5 7 -3 19 0 25 6 9 9 14 8 21 -3 5 -8 10 -10 10 -4 0 7 7 15 16 18
14 5 15 4 5 -8 -10 -12 -9 -14 8 -9 12 3 18 9 15 14 -3 5 3 6 12 2 13 -5 16
-2 12 9 -4 8 -1 15 8 15 7 0 10 -5 7 -10 -4 -6 10 2 30 17 20 16 37 23 37 17
0 -6 -4 -11 -10 -11 -5 0 -10 -6 -10 -12 1 -8 8 -5 18 7 9 11 30 27 45 35 32
16 50 43 54 78 1 15 -2 20 -10 15 -7 -4 -5 2 3 12 9 11 10 16 3 11 -12 -6 -15
0 -12 20 2 13 -26 23 -46 18 -12 -3 -15 -2 -9 3 8 5 4 14 -12 26 -16 12 -23
14 -22 6 2 -7 -3 -14 -9 -15 -7 -1 -18 -2 -24 -3 -5 0 -7 -5 -4 -11 3 -5 1
-10 -4 -10 -6 0 -11 5 -11 11 0 5 -5 7 -10 4 -6 -4 -8 -10 -6 -14 3 -4 -1 -8
-9 -8 -8 0 -11 5 -8 11 4 6 -1 5 -10 -2 -9 -8 -22 -10 -29 -6 -11 6 -11 5 0
-8 10 -13 10 -17 -2 -21 -7 -3 -19 0 -26 6 -9 9 -11 9 -7 1 4 -7 0 -15 -9 -18
-8 -3 -12 -2 -9 4 3 6 1 10 -4 10 -6 0 -11 -5 -11 -12 0 -6 -3 -8 -7 -5 -3 4
-14 0 -24 -9 -13 -12 -19 -12 -25 -3 -4 7 -3 10 4 5 6 -3 13 -2 16 3 5 8 -15
8 -34 1 -3 -1 -9 -2 -13 -1 -5 1 -6 -3 -3 -8 3 -5 -1 -12 -10 -15 -21 -8 -24
-8 -24 5 0 5 5 7 12 3 7 -5 8 -3 4 5 -6 9 -13 8 -29 -6 -14 -12 -18 -13 -12
-3 7 13 6 13 -7 2 -10 -8 -19 -9 -22 -3 -5 8 -26 8 -46 1 -17 -7 -37 -3 -53 9
-16 14 -17 13 -10 -5 7 -19 6 -19 -21 0 -16 10 -26 13 -22 8 3 -6 2 -13 -4
-17 -5 -3 -10 0 -10 8 0 11 -7 13 -22 9 -14 -3 -19 -1 -14 6 3 6 1 14 -5 18
-7 4 -9 3 -5 -4 3 -6 2 -13 -4 -17 -5 -3 -10 -1 -10 5 0 7 -7 9 -16 6 -9 -3
-12 -2 -9 5 4 6 1 10 -6 8 -27 -3 -40 1 -33 12 4 8 0 8 -15 0 -18 -10 -21 -9
-21 6 0 15 -2 16 -10 3 -8 -13 -10 -12 -10 3 0 10 -4 16 -9 13 -5 -4 -12 0
-14 6 -4 9 -6 9 -6 -2 -1 -10 -6 -8 -17 8 -8 12 -22 22 -30 22 -10 0 -12 5 -8
12 6 10 5 10 -7 2 -11 -9 -17 -9 -27 2 -7 8 -9 14 -5 14 4 1 -6 9 -23 18 -18
9 -44 32 -58 49 -15 18 -32 32 -39 30 -10 -2 -12 3 -16 35 0 6 -4 9 -7 5 -10
-10 -36 22 -30 38 3 9 0 12 -9 9 -9 -4 -21 9 -35 38 -12 25 -14 35 -5 24 8
-11 15 -15 15 -8 0 6 -9 18 -21 26 -12 8 -18 19 -14 25 3 7 3 11 -2 10 -21 -4
-33 2 -33 16 0 8 -7 15 -15 15 -8 0 -15 -6 -15 -12 0 -10 -2 -10 -8 0 -11 17
-52 24 -49 9z m282 -267 c3 -5 1 -10 -4 -10 -6 0 -11 5 -11 10 0 6 2 10 4 10
3 0 8 -4 11 -10z m185 -330 c0 -5 -2 -10 -4 -10 -3 0 -8 5 -11 10 -3 6 -1 10
4 10 6 0 11 -4 11 -10z m100 -30 c0 -5 -2 -10 -4 -10 -3 0 -8 5 -11 10 -3 6
-1 10 4 10 6 0 11 -4 11 -10z"/>
</g>
</svg>
